<svg id="visual" viewBox="0 0 900 600" width="900" height="600" xmlns="http://www.w3.org/2000/svg" xmlns:xlink="http://www.w3.org/1999/xlink" version="1.1">
    <rect x="0" y="0" width="900" height="600" fill="#001220"></rect>
    <style>

    .wave1{
        fill: #0e724b;
        animation: swell 7s ease-out infinite;
        
    }
    .wave2{
        fill: #248f5d;
        animation: swell 10s ease-in 3.5s infinite;
    }
    .wave3{
        fill: #3aae6e;
    }
    .wave4{
        fill: #52cd7e;
    }
    .wave5{
        fill: #6bed8e;
        animation: swell 5s ease-in infinite;
    }

    @keyframes swell {
        0% {
            opacity: 0.8;
        }
        50% {
            opacity: 0.5;
        }
        100% {
            opacity: 0.8;
        }

    }
    </style>
    <path class="wave wave1" d="M0 341L21.5 325.8C43 310.7 86 280.3 128.8 267C171.7 253.7 214.3 257.3 257.2 268.7C300 280 343 299 385.8 318.3C428.7 337.7 471.3 357.3 514.2 359.5C557 361.7 600 346.3 642.8 337.2C685.7 328 728.3 325 771.2 322.8C814 320.7 857 319.3 878.5 318.7L900 318L900 601L878.5 601C857 601 814 601 771.2 601C728.3 601 685.7 601 642.8 601C600 601 557 601 514.2 601C471.3 601 428.7 601 385.8 601C343 601 300 601 257.2 601C214.3 601 171.7 601 128.8 601C86 601 43 601 21.5 601L0 601Z"></path>
    <path class="wave wave2" d="M0 413L21.5 406.8C43 400.7 86 388.3 128.8 382.8C171.7 377.3 214.3 378.7 257.2 371.7C300 364.7 343 349.3 385.8 344C428.7 338.7 471.3 343.3 514.2 347.3C557 351.3 600 354.7 642.8 351.5C685.7 348.3 728.3 338.7 771.2 348.8C814 359 857 389 878.5 404L900 419L900 601L878.5 601C857 601 814 601 771.2 601C728.3 601 685.7 601 642.8 601C600 601 557 601 514.2 601C471.3 601 428.7 601 385.8 601C343 601 300 601 257.2 601C214.3 601 171.7 601 128.8 601C86 601 43 601 21.5 601L0 601Z"></path>
    <path class="wave wave3" d="M0 418L21.5 423.2C43 428.3 86 438.7 128.8 442.7C171.7 446.7 214.3 444.3 257.2 448C300 451.7 343 461.3 385.8 458.3C428.7 455.3 471.3 439.7 514.2 437.2C557 434.7 600 445.3 642.8 445C685.7 444.7 728.3 433.3 771.2 431.7C814 430 857 438 878.5 442L900 446L900 601L878.5 601C857 601 814 601 771.2 601C728.3 601 685.7 601 642.8 601C600 601 557 601 514.2 601C471.3 601 428.7 601 385.8 601C343 601 300 601 257.2 601C214.3 601 171.7 601 128.8 601C86 601 43 601 21.5 601L0 601Z"></path>
    <path class="wave wave4" d="M0 435L21.5 448.2C43 461.3 86 487.7 128.8 490.8C171.7 494 214.3 474 257.2 464.3C300 454.7 343 455.3 385.8 454.2C428.7 453 471.3 450 514.2 448.3C557 446.7 600 446.3 642.8 453.2C685.7 460 728.3 474 771.2 474.8C814 475.7 857 463.3 878.5 457.2L900 451L900 601L878.5 601C857 601 814 601 771.2 601C728.3 601 685.7 601 642.8 601C600 601 557 601 514.2 601C471.3 601 428.7 601 385.8 601C343 601 300 601 257.2 601C214.3 601 171.7 601 128.8 601C86 601 43 601 21.5 601L0 601Z"></path>
    <path class="wave wave5" d="M0 504L21.5 503.5C43 503 86 502 128.8 509C171.7 516 214.3 531 257.2 537.8C300 544.7 343 543.3 385.8 543.7C428.7 544 471.3 546 514.2 548.5C557 551 600 554 642.8 548.5C685.7 543 728.3 529 771.2 524.2C814 519.3 857 523.7 878.5 525.8L900 528L900 601L878.5 601C857 601 814 601 771.2 601C728.3 601 685.7 601 642.8 601C600 601 557 601 514.2 601C471.3 601 428.7 601 385.8 601C343 601 300 601 257.2 601C214.3 601 171.7 601 128.8 601C86 601 43 601 21.5 601L0 601Z"></path>
</svg>